<svg xmlns="http://www.w3.org/2000/svg" width="24" height="24" viewBox="0 0 24 24" fill="none" stroke="currentColor" stroke-width="2" stroke-linecap="round" stroke-linejoin="round" class="lucide lucide-puzzle"><path d="M19.43 12.03c.32.2.57.44.81.71l1.42-1.42c-1.03-1.03-2.22-1.85-3.57-2.43.04-.2.06-.4.06-.61 0-1.77-1.43-3.2-3.2-3.2s-3.2 1.43-3.2 3.2c0 .21.02.41.06.61a6 6 0 0 0-3.57 2.43l1.42 1.42c.24-.27.49-.51.81-.71C8.82 11.23 8 10.21 8 9c0-1.77 1.43-3.2 3.2-3.2S14.4 7.23 14.4 9c0 1.21-.82 2.23-1.97 3.03z"/><path d="M19.43 12.03c-.32.2-.57.44-.81.71-.24.27-.49.51-.81.71l-1.42 1.42c1.03 1.03 2.22 1.85 3.57 2.43-.04.2-.06.4-.06.61 0 1.77 1.43 3.2 3.2 3.2s3.2-1.43 3.2-3.2c0-.21-.02-.41-.06-.61a6 6 0 0 0 3.57-2.43l-1.42-1.42c-.24.27-.49.51-.81.71z"/><path d="M4.57 12.03c.32.2.57.44.81.71.24.27.49.51.81.71l1.42 1.42c-1.03 1.03-2.22 1.85-3.57 2.43.04.2.06.4.06.61 0 1.77-1.43 3.2-3.2 3.2S-1.6 19.77-1.6 18c0-.21.02-.41.06-.61A6 6 0 0 1 2 15l1.42 1.42c.24-.27.49-.51.81-.71z"/><path d="M12.03 4.57c.2.32.44.57.71.81.27.24.51.49.71.81l1.42-1.42c-1.03-1.03-1.85-2.22-2.43-3.57a3.2 3.2 0 0 0-.61.06c-1.77 0-3.2-1.43-3.2-3.2S7.23-1.6 9-1.6c.21 0 .41.02.61.06a6 6 0 0 1 2.43 3.57z"/></svg> 